<svg width="642" height="308" viewBox="0 0 642 308" fill="none" xmlns="http://www.w3.org/2000/svg">
<g filter="url(#filter0_d)">
<path fill-rule="evenodd" clip-rule="evenodd" d="M30.482 1.177C29.771 3.03 4.01 135.401 4 137.25C3.998 137.663 10.041 138 17.429 138C29.359 138 30.919 137.804 31.376 136.25C31.66 135.288 33.7549 124.606 36.0309 112.513C38.3079 100.42 40.3829 90.183 40.6429 89.763C40.9019 89.343 45.475 88.984 50.805 88.964C56.135 88.945 62.971 88.335 65.996 87.609C73.814 85.733 83.4419 80.599 89.1479 75.261C96.7619 68.139 99.164 61.886 104.071 36.406L108.326 14.313L106.176 9.90601C104.988 7.47201 102.375 4.381 100.336 3L96.647 0.5L63.818 0.177002C37.287 -0.082998 30.892 0.108002 30.482 1.177ZM126.676 0.708008C126.387 1.17701 124.745 8.97203 123.028 18.03C121.311 27.089 119.036 38.775 117.973 44C116.91 49.225 113.757 65.425 110.965 80C108.173 94.575 104.563 113.144 102.943 121.265C101.322 129.386 99.996 136.474 99.996 137.015C99.996 137.844 126.871 138.574 127.051 137.75C127.081 137.612 129.233 126.7 131.834 113.5L136.563 89.5L145.895 89.211C155.904 88.901 159.221 89.983 160.486 93.969C160.988 95.549 156.516 122.138 153.455 135.778L152.944 138.057L166.693 137.778L180.441 137.5L184.749 116C187.925 100.143 188.902 93.212 188.471 89.594C187.838 84.29 186.062 80.13 183.535 78.032C182.118 76.857 182.454 76.219 186.553 72.29C189.09 69.86 192.261 65.479 193.599 62.556C195.679 58.013 203.996 20.152 203.996 15.227C203.996 11.78 199.733 5.00002 196.175 2.78802C192.569 0.545025 191.849 0.493979 159.849 0.177979C141.894 0.000978515 126.966 0.240008 126.676 0.708008ZM240.893 0.934021C231.204 2.82602 223.077 11.21 221.078 21.375C220.524 24.194 216.886 42.925 212.995 63C209.104 83.075 205.037 103.95 203.958 109.389C200.753 125.543 201.56 130.413 208.231 135.171C211.46 137.474 211.803 137.5 238.996 137.5C269.574 137.5 269.111 137.588 276.215 130.46C278.261 128.408 280.617 124.877 281.451 122.614C283.762 116.349 301.996 20.867 301.996 15.035C301.996 10.499 301.573 9.47497 298.246 5.95697C295.245 2.78297 293.42 1.792 289.11 0.994995C283.097 -0.116005 246.506 -0.162979 240.893 0.934021ZM345.996 0.505005C345.996 1.035 336.859 48.253 330.014 83.095C327.809 94.318 325.489 104.759 324.86 106.297C323.082 110.637 318.779 112.233 307.041 112.903L296.577 113.5L294.333 124.5C293.099 130.55 292.068 136.063 292.043 136.75C291.982 138.38 310.686 138.469 318.197 136.875C330.637 134.234 344.095 124.869 349.146 115.339C352.428 109.148 352.791 107.635 360.027 70C363.358 52.675 367.638 30.685 369.54 21.134C371.441 11.583 372.996 2.91997 372.996 1.88397C372.996 0.131972 372.052 0 359.496 0C352.071 0 345.996 0.227005 345.996 0.505005ZM393.507 1.25C393.103 2.434 389.544 20.744 374.407 99.5C370.812 118.2 367.626 134.513 367.326 135.75L366.779 138H403.388C423.522 138 439.996 137.825 439.996 137.61C439.996 137.12 443.795 118.288 444.507 115.25L445.034 113H422.682C410.388 113 400.09 112.761 399.798 112.469C399.324 111.995 400.133 107.353 404.104 87.75L405.269 82H424.114C442.833 82 442.961 81.985 443.484 79.75C445.532 70.991 447.831 57.541 447.399 56.843C447.112 56.379 438.652 56 428.597 56H410.317L412.165 46.25C413.182 40.888 414.492 34.138 415.076 31.25L416.138 26H438.926H461.715L463.859 14.75C465.039 8.563 466.002 2.712 466 1.75C465.996 0.116 463.612 0 429.965 0C402.034 0 393.837 0.281 393.507 1.25ZM472.499 1.25C471.823 3.199 467.996 23.049 467.996 24.608C467.996 25.726 470.556 26 480.996 26C488.146 26 493.996 26.283 493.996 26.628C493.996 27.613 475.084 124.999 473.981 129.693C471.928 138.431 471.286 138 486.337 138H499.678L500.796 132.75C501.41 129.862 504.202 115.575 506.999 101C509.796 86.425 513.856 65.5 516.021 54.5C518.186 43.5 520.249 32.587 520.605 30.25L521.252 26H534.605C547.63 26 547.971 25.945 548.485 23.75C549.56 19.161 552.996 1.74901 552.996 0.890015C552.996 0.385015 535.684 0 512.965 0C481.838 0 472.837 0.278 472.499 1.25ZM576.041 1.047C573.591 1.552 569.553 3.22297 567.067 4.75897C560.179 9.01797 557.502 14.323 554.583 29.5C553.208 36.65 548.688 59.88 544.539 81.123C540.39 102.365 536.996 121.437 536.996 123.505C536.996 128.519 540.301 133.605 545.175 136.091C548.922 138.003 550.661 138.102 575.324 137.81C604.588 137.463 604.65 137.45 611.91 129.969C615.967 125.789 617.516 121.502 620.393 106.5C625.35 80.653 634.311 34.407 635.602 28.006C638.552 13.386 637.363 7.84698 630.226 2.95398C626.702 0.53798 626.285 0.497026 603.571 0.314026C590.88 0.211026 578.491 0.540997 576.041 1.047ZM78.521 27.25C78.294 27.938 76.898 34.794 75.42 42.488C73.941 50.181 72.109 57.424 71.349 58.583C69.19 61.879 65.244 63.143 55.246 63.741C46.636 64.256 45.996 64.163 45.995 62.397C45.995 60.665 51.692 30.167 52.561 27.25C52.834 26.333 56.398 26 65.933 26C75.887 26 78.837 26.293 78.521 27.25ZM174.525 27.25C174.301 27.938 172.917 34.899 171.45 42.719C168.475 58.574 167.123 61.038 160.369 62.914C154.625 64.508 141.996 64.342 141.996 62.671C141.996 61.479 147.235 33.825 148.517 28.25C149.021 26.059 149.374 26 161.984 26C171.894 26 174.838 26.293 174.525 27.25ZM272.996 27.202C272.996 29.152 256.945 111.273 256.388 112.175C255.693 113.3 232.255 113.227 231.557 112.098C231.25 111.602 231.656 107.89 232.459 103.848C233.261 99.807 236.88 81.2 240.5 62.5C244.12 43.8 247.274 27.938 247.508 27.25C248.103 25.5 272.996 25.453 272.996 27.202ZM607.996 28.053C607.996 29.182 607.336 33.119 606.53 36.803C605.724 40.486 602.783 55.425 599.995 70C593.047 106.324 592.088 111.042 591.441 112.09C590.727 113.244 567.297 113.296 566.585 112.144C566.294 111.674 568.522 98.736 571.535 83.394C574.548 68.052 578.155 49.425 579.55 42C580.944 34.575 582.276 27.938 582.509 27.25C582.818 26.339 586.332 26 595.465 26C607.436 26 607.996 26.092 607.996 28.053Z" fill="#386890"/>
<path fill-rule="evenodd" clip-rule="evenodd" d="M7.4044 165.937C7.0424 168 6.12241 172.754 5.35941 176.502C3.00241 188.08 2.02238 187.187 17.0794 187.187C30.1654 187.187 30.1874 187.191 29.6524 189.437C29.1444 191.569 21.6064 230.194 12.9164 275.187C10.7384 286.462 8.77741 296.475 8.55741 297.437C8.19241 299.038 9.32544 299.187 21.8504 299.187H35.5424L37.2594 290.437C38.2024 285.625 40.9784 271.337 43.4274 258.687C45.8764 246.037 50.0194 224.774 52.6334 211.437L57.3864 187.187H70.6604C83.6154 187.187 83.9444 187.133 84.4164 184.937C84.6814 183.7 85.6194 178.862 86.5004 174.187C87.3824 169.512 88.3284 164.899 88.6044 163.937C89.0764 162.291 86.7014 162.187 48.5844 162.187H8.06242L7.4044 165.937ZM97.6574 164.437C97.3654 165.674 94.3734 180.862 91.0084 198.187C87.6434 215.512 81.8514 245.212 78.1374 264.187C71.8564 296.277 71.5124 298.722 73.2014 299.187C74.2004 299.462 80.3624 299.549 86.8944 299.38L98.7714 299.073L104.182 271.38L109.593 243.687L122.282 243.407C133.887 243.151 134.971 243.279 134.968 244.907C134.966 245.886 132.701 258.117 129.935 272.087C127.168 286.058 125.049 297.921 125.226 298.451C125.536 299.383 150.927 299.564 151.85 298.641C152.092 298.399 154.714 285.711 157.676 270.444C160.638 255.178 165.982 227.612 169.552 209.187C173.121 190.762 176.642 172.649 177.376 168.937L178.71 162.187H165.001H151.292L146.533 186.937C143.916 200.549 141.453 213.037 141.061 214.687L140.347 217.687L127.659 217.967C117.867 218.183 114.973 217.955 114.981 216.967C114.987 216.263 116.963 205.562 119.373 193.187C121.783 180.812 124.068 168.774 124.451 166.437L125.147 162.187H111.667C98.5124 162.187 98.1754 162.241 97.6574 164.437ZM209.471 164.087C204.967 166.177 199.517 171.231 197.443 175.24C196.058 177.92 193.844 188.6 183.465 242.687C180.404 258.637 177.466 273.574 176.936 275.88C174.486 286.53 176.887 293.866 183.991 297.435C187.036 298.965 190.661 299.181 212.971 299.163C235.491 299.145 238.938 298.93 242.471 297.32C250.756 293.543 255.359 287.671 257.079 278.687C257.5 276.487 261.923 253.701 266.908 228.052C271.893 202.403 275.969 179.453 275.967 177.052C275.963 171.778 273.236 166.929 268.73 164.182C265.696 162.332 263.673 162.196 239.471 162.213C216.271 162.229 213.04 162.431 209.471 164.087ZM300.078 167.399C299.501 170.308 295.884 188.887 292.041 208.687C288.198 228.487 282.785 256.35 280.012 270.605C277.24 284.859 274.97 297.234 274.969 298.105C274.968 299.484 276.685 299.648 288.374 299.384C301.233 299.094 301.803 298.991 302.315 296.884C302.608 295.676 304.688 285.022 306.937 273.21C309.185 261.398 311.419 251.339 311.901 250.857C312.383 250.375 316.91 250.14 321.961 250.334C330.552 250.664 331.299 250.866 333.529 253.459C336.244 256.617 336.426 254.4 331.311 280.528C329.39 290.34 328.049 298.599 328.331 298.88C328.987 299.536 354.219 299.272 354.889 298.602C355.166 298.325 357.315 288.331 359.665 276.393C364.393 252.376 364.378 248.119 359.54 241.107L357.181 237.687L361.661 233.373C368.076 227.194 370.374 221.169 374.494 199.72C379.588 173.204 379.368 170.561 371.588 164.749C368.947 162.776 367.369 162.675 334.978 162.399L301.128 162.112L300.078 167.399ZM246.971 188.729C246.971 189.577 245.863 195.764 244.508 202.479C241.854 215.633 232.471 264.282 231.401 270.437L230.748 274.187H217.86C210.771 274.187 204.972 273.85 204.974 273.437C204.976 273.024 205.852 268.187 206.922 262.687C207.991 257.187 211.603 238.512 214.948 221.187C218.293 203.862 221.227 189.125 221.469 188.437C221.789 187.527 225.316 187.187 234.44 187.187C245.063 187.187 246.971 187.422 246.971 188.729ZM348.971 188.468C348.971 191.862 343.668 216.872 342.448 219.231C340.257 223.469 335.388 225.187 325.57 225.187C318.047 225.187 316.971 224.968 316.971 223.437C316.971 221.626 322.736 190.65 323.485 188.437C324.101 186.618 348.971 186.648 348.971 188.468Z" fill="#008080"/>
</g>
<defs>
<filter id="filter0_d" x="0" y="0" width="641.105" height="307.489" filterUnits="userSpaceOnUse" color-interpolation-filters="sRGB">
<feFlood flood-opacity="0" result="BackgroundImageFix"/>
<feColorMatrix in="SourceAlpha" type="matrix" values="0 0 0 0 0 0 0 0 0 0 0 0 0 0 0 0 0 0 127 0" result="hardAlpha"/>
<feOffset dy="4"/>
<feGaussianBlur stdDeviation="2"/>
<feComposite in2="hardAlpha" operator="out"/>
<feColorMatrix type="matrix" values="0 0 0 0 0 0 0 0 0 0 0 0 0 0 0 0 0 0 0.25 0"/>
<feBlend mode="normal" in2="BackgroundImageFix" result="effect1_dropShadow"/>
<feBlend mode="normal" in="SourceGraphic" in2="effect1_dropShadow" result="shape"/>
</filter>
</defs>
</svg>
